<svg width="353" height="222" viewBox="0 0 353 222" fill="none" xmlns="http://www.w3.org/2000/svg">
<g clip-path="url(#clip0_702_939)">
<path d="M39.5434 132.671C43.9025 132.671 47.7773 133.64 51.1677 135.577C54.5582 137.445 57.1875 140.247 59.0557 143.984C60.993 147.651 61.9617 152.079 61.9617 157.269V191H47.4313V159.241C47.4313 154.674 46.2897 151.18 44.0063 148.758C41.723 146.267 38.6093 145.022 34.6654 145.022C30.6522 145.022 27.4694 146.267 25.1168 148.758C22.8335 151.18 21.6918 154.674 21.6918 159.241V191H7.16141V114.197H21.6918V140.663C23.56 138.172 26.0509 136.234 29.1646 134.85C32.2782 133.397 35.7378 132.671 39.5434 132.671ZM98.1977 191.934C92.6623 191.934 87.6805 190.723 83.2522 188.301C78.8239 185.811 75.3296 182.316 72.7695 177.819C70.2786 173.321 69.0331 168.132 69.0331 162.251C69.0331 156.369 70.3132 151.18 72.8733 146.682C75.5026 142.185 79.066 138.725 83.5635 136.303C88.061 133.813 93.0775 132.567 98.6129 132.567C104.148 132.567 109.165 133.813 113.662 136.303C118.16 138.725 121.689 142.185 124.249 146.682C126.878 151.18 128.193 156.369 128.193 162.251C128.193 168.132 126.843 173.321 124.145 177.819C121.516 182.316 117.918 185.811 113.351 188.301C108.853 190.723 103.802 191.934 98.1977 191.934ZM98.1977 179.272C100.827 179.272 103.283 178.649 105.567 177.404C107.919 176.089 109.787 174.152 111.171 171.592C112.555 169.031 113.247 165.918 113.247 162.251C113.247 156.784 111.794 152.598 108.888 149.692C106.051 146.717 102.557 145.229 98.4053 145.229C94.2537 145.229 90.7595 146.717 87.9226 149.692C85.1549 152.598 83.7711 156.784 83.7711 162.251C83.7711 167.717 85.1204 171.938 87.8189 174.913C90.5865 177.819 94.0462 179.272 98.1977 179.272ZM132.001 162.043C132.001 156.231 133.143 151.076 135.426 146.579C137.779 142.081 140.927 138.621 144.871 136.2C148.884 133.778 153.347 132.567 158.26 132.567C162.55 132.567 166.286 133.432 169.469 135.162C172.721 136.892 175.316 139.071 177.253 141.7V133.501H191.887V191H177.253V182.593C175.385 185.292 172.79 187.54 169.469 189.339C166.217 191.069 162.446 191.934 158.156 191.934C153.312 191.934 148.884 190.689 144.871 188.198C140.927 185.707 137.779 182.213 135.426 177.715C133.143 173.148 132.001 167.924 132.001 162.043ZM177.253 162.251C177.253 158.722 176.561 155.712 175.177 153.221C173.793 150.661 171.925 148.723 169.573 147.409C167.22 146.025 164.695 145.333 161.996 145.333C159.298 145.333 156.807 145.99 154.523 147.305C152.24 148.62 150.372 150.557 148.919 153.117C147.535 155.608 146.843 158.583 146.843 162.043C146.843 165.503 147.535 168.547 148.919 171.176C150.372 173.737 152.24 175.708 154.523 177.092C156.876 178.476 159.367 179.168 161.996 179.168C164.695 179.168 167.22 178.511 169.573 177.196C171.925 175.812 173.793 173.875 175.177 171.384C176.561 168.824 177.253 165.779 177.253 162.251ZM225.487 132.567C229.777 132.567 233.548 133.432 236.8 135.162C240.052 136.822 242.612 139.002 244.48 141.7V133.501H259.114V191.415C259.114 196.743 258.042 201.483 255.897 205.634C253.752 209.855 250.535 213.176 246.245 215.598C241.955 218.089 236.765 219.334 230.676 219.334C222.512 219.334 215.8 217.431 210.541 213.626C205.352 209.82 202.411 204.631 201.719 198.058H216.146C216.907 200.687 218.533 202.763 221.024 204.285C223.584 205.876 226.663 206.672 230.261 206.672C234.482 206.672 237.907 205.392 240.536 202.832C243.166 200.341 244.48 196.535 244.48 191.415V182.489C242.612 185.188 240.017 187.437 236.696 189.236C233.444 191.035 229.708 191.934 225.487 191.934C220.644 191.934 216.215 190.689 212.202 188.198C208.189 185.707 205.006 182.213 202.654 177.715C200.37 173.148 199.229 167.924 199.229 162.043C199.229 156.231 200.37 151.076 202.654 146.579C205.006 142.081 208.154 138.621 212.098 136.2C216.111 133.778 220.574 132.567 225.487 132.567ZM244.48 162.251C244.48 158.722 243.788 155.712 242.405 153.221C241.021 150.661 239.152 148.723 236.8 147.409C234.447 146.025 231.922 145.333 229.223 145.333C226.525 145.333 224.034 145.99 221.751 147.305C219.467 148.62 217.599 150.557 216.146 153.117C214.762 155.608 214.07 158.583 214.07 162.043C214.07 165.503 214.762 168.547 216.146 171.176C217.599 173.737 219.467 175.708 221.751 177.092C224.103 178.476 226.594 179.168 229.223 179.168C231.922 179.168 234.447 178.511 236.8 177.196C239.152 175.812 241.021 173.875 242.405 171.384C243.788 168.824 244.48 165.779 244.48 162.251ZM277.561 126.651C275.001 126.651 272.856 125.855 271.126 124.264C269.466 122.603 268.635 120.562 268.635 118.14C268.635 115.719 269.466 113.712 271.126 112.121C272.856 110.46 275.001 109.63 277.561 109.63C280.121 109.63 282.232 110.46 283.892 112.121C285.622 113.712 286.487 115.719 286.487 118.14C286.487 120.562 285.622 122.603 283.892 124.264C282.232 125.855 280.121 126.651 277.561 126.651ZM284.723 133.501V191H270.192V133.501H284.723ZM349.416 161.005C349.416 163.081 349.278 164.949 349.001 166.61H306.967C307.313 170.761 308.766 174.013 311.326 176.366C313.886 178.718 317.034 179.895 320.771 179.895C326.168 179.895 330.008 177.577 332.291 172.941H347.963C346.302 178.476 343.12 183.043 338.415 186.641C333.709 190.17 327.932 191.934 321.082 191.934C315.546 191.934 310.565 190.723 306.136 188.301C301.777 185.811 298.352 182.316 295.861 177.819C293.44 173.321 292.229 168.132 292.229 162.251C292.229 156.3 293.44 151.076 295.861 146.579C298.283 142.081 301.673 138.621 306.033 136.2C310.392 133.778 315.408 132.567 321.082 132.567C326.548 132.567 331.426 133.743 335.716 136.096C340.075 138.448 343.431 141.804 345.784 146.163C348.205 150.453 349.416 155.401 349.416 161.005ZM334.367 156.854C334.298 153.117 332.948 150.142 330.319 147.928C327.69 145.644 324.472 144.503 320.667 144.503C317.069 144.503 314.024 145.61 311.533 147.824C309.112 149.969 307.624 152.979 307.07 156.854H334.367Z" fill="#E072A4"/>
<path d="M298.11 104.187C325.224 104.187 347.203 82.2073 347.203 55.0936V55.0936C347.203 27.98 325.224 6.00002 298.11 6.00002H204.899L130.874 104.187L298.11 104.187Z" fill="#E072A4"/>
<path d="M130.874 104.187L298.11 104.187C325.224 104.187 347.203 82.2073 347.203 55.0936V55.0936C347.203 27.98 325.224 6.00002 298.11 6.00002H204.899M130.874 104.187H55.0936C27.98 104.187 6 82.2073 6 55.0936V55.0936C6 27.98 27.98 6.00002 55.0936 6.00002H96.674M130.874 104.187L204.899 6.00002M204.899 6.00002H145.057M145.057 6.00002L106.036 55.6509M145.057 6.00002L96.674 6.00002M96.674 6.00002L62.8159 50.7974" stroke="#E072A4" stroke-width="11.5321"/>
</g>
<defs>
<clipPath id="clip0_702_939">
<rect width="353" height="222" fill="white"/>
</clipPath>
</defs>
</svg>
